<svg width="561" height="561" viewBox="0 0 561 561" fill="none" xmlns="http://www.w3.org/2000/svg">
<path d="M71.2175 302.417C53.3588 269.054 48.0862 230.383 56.3611 193.456C64.6361 156.529 85.9074 123.806 116.296 101.254C146.685 78.7021 184.167 67.8235 221.908 70.6018C259.648 73.3801 295.133 89.6302 321.892 116.389C348.651 143.148 364.901 178.633 367.679 216.373C370.458 254.114 359.579 291.596 337.027 321.985C314.475 352.374 281.753 373.645 244.826 381.92C207.899 390.195 169.228 384.922 135.864 367.064L75.0305 384.946C72.0098 385.833 68.806 385.89 65.7555 385.111C62.705 384.333 59.9205 382.747 57.6943 380.521C55.4682 378.295 53.8826 375.51 53.104 372.46C52.3255 369.41 52.3828 366.206 53.2699 363.185L71.2175 302.417Z" fill="#936EFF" stroke="white" stroke-width="1.5" stroke-linecap="round" stroke-linejoin="round"/>
<path d="M359.256 175.552C385.762 176.993 411.475 185.098 434.016 199.116C456.557 213.135 475.197 232.613 488.211 255.749C501.224 278.885 508.19 304.931 508.464 331.474C508.737 358.017 502.31 384.2 489.776 407.6L507.658 468.433C508.545 471.454 508.602 474.658 507.824 477.708C507.045 480.759 505.46 483.543 503.234 485.769C501.007 487.996 498.223 489.581 495.172 490.36C492.122 491.138 488.918 491.081 485.897 490.194L425.13 472.246C405.056 482.982 382.899 489.249 360.176 490.62C337.453 491.99 314.703 488.431 293.484 480.187C272.266 471.942 253.081 459.207 237.245 442.854C221.409 426.501 209.297 406.917 201.738 385.445" stroke="#F0F0F0" stroke-width="1.5" stroke-linecap="round" stroke-linejoin="round"/>
</svg>
