<svg width="644" height="584" viewBox="0 0 644 584" fill="none" xmlns="http://www.w3.org/2000/svg">
<g clip-path="url(#clip0_171_113)">
<path d="M109.919 254.44C94.8938 226.37 90.4577 193.834 97.4199 162.765C104.382 131.696 122.279 104.165 147.847 85.1908C173.414 66.2167 204.95 57.0639 236.703 59.4014C268.457 61.7389 298.312 75.411 320.826 97.9247C343.339 120.438 357.011 150.294 359.349 182.047C361.687 213.8 352.534 245.336 333.56 270.904C314.585 296.472 287.054 314.368 255.985 321.331C224.917 328.293 192.381 323.857 164.31 308.831L113.127 323.876C110.586 324.622 107.89 324.671 105.324 324.016C102.757 323.361 100.415 322.027 98.5416 320.154C96.6686 318.281 95.3345 315.938 94.6795 313.371C94.0245 310.805 94.0727 308.109 94.819 305.568L109.919 254.44Z" fill="#936EFF" stroke="white" stroke-width="1.5" stroke-linecap="round" stroke-linejoin="round"/>
<path d="M352.262 147.701C374.562 148.914 396.196 155.733 415.162 167.527C434.127 179.322 449.81 195.71 460.758 215.176C471.707 234.641 477.568 256.555 477.798 278.887C478.028 301.219 472.621 323.249 462.075 342.936L477.12 394.118C477.867 396.66 477.915 399.355 477.26 401.922C476.605 404.488 475.271 406.831 473.398 408.704C471.525 410.577 469.182 411.911 466.616 412.566C464.049 413.221 461.353 413.173 458.812 412.427L407.685 397.326C390.796 406.359 372.153 411.632 353.036 412.785C333.918 413.938 314.777 410.944 296.924 404.007C279.072 397.071 262.931 386.356 249.607 372.597C236.284 358.838 226.093 342.361 219.733 324.296" stroke="#F0F0F0" stroke-width="1.5" stroke-linecap="round" stroke-linejoin="round"/>
</g>
<path d="M36.27 562.99C31.53 562.99 27.12 562.18 23.04 560.56C19.02 558.88 15.48 556.54 12.42 553.54C9.42 550.54 7.08 547.06 5.4 543.1C3.72 539.08 2.88 534.76 2.88 530.14C2.88 525.52 3.72 521.23 5.4 517.27C7.08 513.25 9.42 509.77 12.42 506.83C15.42 503.89 18.93 501.61 22.95 499.99C27.03 498.31 31.44 497.47 36.18 497.47C41.22 497.47 45.69 498.28 49.59 499.9C53.55 501.52 57 503.74 59.94 506.56L50.49 516.1C48.81 514.3 46.77 512.89 44.37 511.87C42.03 510.85 39.3 510.34 36.18 510.34C33.42 510.34 30.87 510.82 28.53 511.78C26.25 512.68 24.27 514 22.59 515.74C20.97 517.48 19.68 519.58 18.72 522.04C17.82 524.5 17.37 527.2 17.37 530.14C17.37 533.14 17.82 535.87 18.72 538.33C19.68 540.79 20.97 542.89 22.59 544.63C24.27 546.37 26.25 547.72 28.53 548.68C30.87 549.64 33.42 550.12 36.18 550.12C39.42 550.12 42.24 549.61 44.64 548.59C47.04 547.57 49.11 546.16 50.85 544.36L60.39 553.9C57.33 556.72 53.82 558.94 49.86 560.56C45.96 562.18 41.43 562.99 36.27 562.99ZM68.1708 562V498.46H82.3008V562H68.1708ZM107.501 562V498.46H121.721V562H107.501ZM76.6308 535.45V523.21H112.181V535.45H76.6308ZM129.143 562L154.343 498.46H167.123L192.053 562H177.113L158.033 509.26H163.163L143.813 562H129.143ZM143.453 550.48V538.96H178.103V550.48H143.453ZM207.227 562V499.36H221.357V562H207.227ZM187.337 510.79V498.46H241.247V510.79H187.337ZM249.138 562V498.46H263.268V562H249.138ZM288.468 562V498.46H302.688V562H288.468ZM257.598 535.45V523.21H293.148V535.45H257.598ZM340.44 562.99C335.22 562.99 330.6 561.88 326.58 559.66C322.62 557.44 319.5 554.38 317.22 550.48C315 546.52 313.89 542.02 313.89 536.98V498.46H328.11V537.79C328.11 540.31 328.65 542.5 329.73 544.36C330.81 546.22 332.28 547.66 334.14 548.68C336.06 549.64 338.16 550.12 340.44 550.12C342.84 550.12 344.94 549.64 346.74 548.68C348.54 547.66 349.95 546.25 350.97 544.45C352.05 542.59 352.59 540.4 352.59 537.88V498.46H366.81V537.07C366.81 542.11 365.7 546.58 363.48 550.48C361.26 554.38 358.17 557.44 354.21 559.66C350.25 561.88 345.66 562.99 340.44 562.99ZM388.873 562V551.02H403.813C406.573 551.02 408.733 550.21 410.293 548.59C411.853 546.97 412.633 544.99 412.633 542.65C412.633 541.03 412.273 539.59 411.553 538.33C410.833 537.07 409.813 536.08 408.493 535.36C407.233 534.64 405.673 534.28 403.813 534.28H388.873V523.57H402.643C404.983 523.57 406.873 523 408.313 521.86C409.753 520.66 410.473 518.86 410.473 516.46C410.473 514.12 409.753 512.38 408.313 511.24C406.873 510.04 404.983 509.44 402.643 509.44H388.873V498.46H405.343C409.423 498.46 412.873 499.21 415.693 500.71C418.573 502.21 420.763 504.22 422.263 506.74C423.763 509.26 424.513 512.05 424.513 515.11C424.513 519.01 423.253 522.31 420.733 525.01C418.213 527.71 414.493 529.57 409.573 530.59L409.933 525.82C415.273 526.84 419.383 528.91 422.263 532.03C425.203 535.15 426.673 538.99 426.673 543.55C426.673 547.03 425.803 550.18 424.063 553C422.383 555.76 419.923 557.95 416.683 559.57C413.503 561.19 409.663 562 405.163 562H388.873ZM378.073 562V498.46H392.023V562H378.073ZM445.269 562V549.58H461.019C464.859 549.58 468.219 548.83 471.099 547.33C473.979 545.77 476.199 543.52 477.759 540.58C479.319 537.64 480.099 534.16 480.099 530.14C480.099 526.12 479.289 522.67 477.669 519.79C476.109 516.91 473.889 514.69 471.009 513.13C468.189 511.57 464.859 510.79 461.019 510.79H444.819V498.46H461.199C465.999 498.46 470.409 499.24 474.429 500.8C478.509 502.3 482.049 504.49 485.049 507.37C488.109 510.19 490.449 513.55 492.069 517.45C493.749 521.29 494.589 525.55 494.589 530.23C494.589 534.85 493.749 539.11 492.069 543.01C490.449 546.91 488.139 550.27 485.139 553.09C482.139 555.91 478.599 558.1 474.519 559.66C470.499 561.22 466.119 562 461.379 562H445.269ZM435.729 562V498.46H449.859V562H435.729ZM503.581 562V498.46H517.711V562H503.581ZM514.381 562V549.76H549.211V562H514.381ZM514.381 535.45V523.66H546.061V535.45H514.381ZM514.381 510.61V498.46H548.761V510.61H514.381ZM577.522 562L553.042 498.46H568.162L586.792 549.85H580.582L599.482 498.46H614.422L589.672 562H577.522Z" fill="url(#paint0_linear_171_113)"/>
<defs>
<linearGradient id="paint0_linear_171_113" x1="0" y1="528" x2="644" y2="528" gradientUnits="userSpaceOnUse">
<stop stop-color="white"/>
<stop offset="1" stop-color="white"/>
</linearGradient>
<clipPath id="clip0_171_113">
<rect width="472" height="472" fill="white" transform="translate(50)"/>
</clipPath>
</defs>
</svg>
