<svg width="561" height="561" viewBox="0 0 561 561" fill="none" xmlns="http://www.w3.org/2000/svg">
<path d="M71.218 302.417C53.3592 269.054 48.0867 230.383 56.3616 193.456C64.6366 156.529 85.9079 123.806 116.297 101.254C146.686 78.7021 184.168 67.8235 221.908 70.6018C259.649 73.3801 295.134 89.6302 321.893 116.389C348.651 143.148 364.902 178.633 367.68 216.373C370.458 254.114 359.58 291.596 337.028 321.985C314.476 352.374 281.753 373.645 244.826 381.92C207.899 390.195 169.228 384.922 135.864 367.064L75.031 384.946C72.0103 385.833 68.8065 385.89 65.756 385.111C62.7055 384.333 59.921 382.747 57.6948 380.521C55.4687 378.295 53.883 375.51 53.1045 372.46C52.326 369.409 52.3833 366.206 53.2703 363.185L71.218 302.417Z" fill="#936EFF" stroke="black" stroke-width="3" stroke-linecap="round" stroke-linejoin="round"/>
<path d="M359.256 175.552C385.761 176.993 411.475 185.098 434.016 199.116C456.557 213.135 475.197 232.613 488.21 255.749C501.224 278.885 508.189 304.931 508.463 331.474C508.737 358.017 502.309 384.2 489.776 407.6L507.658 468.433C508.545 471.454 508.602 474.658 507.823 477.708C507.045 480.759 505.459 483.543 503.233 485.769C501.007 487.996 498.222 489.581 495.172 490.36C492.121 491.138 488.918 491.081 485.897 490.194L425.129 472.246C405.056 482.982 382.898 489.249 360.175 490.62C337.453 491.99 314.702 488.431 293.484 480.187C272.266 471.942 253.081 459.207 237.245 442.854C221.409 426.501 209.296 406.917 201.737 385.445" stroke="black" stroke-width="10" stroke-linecap="round" stroke-linejoin="round"/>
</svg>
